<?xml version="1.0" standalone="no"?>
<!DOCTYPE svg PUBLIC "-//W3C//DTD SVG 20010904//EN"
 "http://www.w3.org/TR/2001/REC-SVG-20010904/DTD/svg10.dtd">
<svg version="1.0" xmlns="http://www.w3.org/2000/svg"
 width="512.000000pt" height="512.000000pt" viewBox="0 0 512.000000 512.000000"
 preserveAspectRatio="xMidYMid meet">
<metadata>
Created by potrace 1.14, written by Peter Selinger 2001-2017
</metadata>
<g transform="translate(0.000000,512.000000) scale(0.100000,-0.100000)"
fill="#000000" stroke="none">
<path d="M390 5104 c-30 -8 -80 -26 -110 -41 -72 -35 -188 -151 -223 -223 -61
-126 -57 23 -57 -2280 0 -2303 -4 -2154 57 -2280 35 -72 151 -188 223 -223
126 -61 -23 -57 2280 -57 2303 0 2154 -4 2280 57 72 35 188 151 223 223 61
126 57 -23 57 2280 0 2303 4 2154 -57 2280 -35 72 -151 188 -223 223 -127 61
23 57 -2285 56 -1816 0 -2118 -2 -2165 -15z m1207 -909 c72 -9 150 -44 200
-89 30 -28 178 -230 403 -554 195 -281 358 -510 362 -509 4 1 162 225 352 497
191 272 366 517 391 543 81 87 228 133 369 115 66 -9 164 -52 214 -95 l34 -29
-517 -724 c-284 -399 -519 -730 -522 -737 -3 -7 241 -356 541 -777 300 -421
546 -770 546 -775 0 -17 -97 -91 -157 -119 -50 -23 -70 -27 -153 -27 -87 0
-101 3 -160 32 -38 19 -86 54 -116 85 -28 29 -212 283 -410 563 -197 281 -370
527 -385 548 l-27 37 -399 -567 c-443 -630 -453 -641 -584 -683 -132 -43 -275
-11 -374 83 l-55 52 549 769 c303 424 547 775 544 780 -4 6 -236 332 -515 724
-280 393 -512 720 -514 727 -7 17 70 79 129 105 48 22 144 39 187 34 14 -2 44
-6 67 -9z"/>
</g>
</svg>
